<svg width="342" height="342" viewBox="0 0 342 342" fill="none" xmlns="http://www.w3.org/2000/svg">
<path d="M168.495 101.03C161.749 102.366 157.206 104.571 154 108.077C151.061 111.284 148.957 115.893 150.427 115.893C150.66 115.893 151.763 115.358 152.831 114.724C157.34 111.985 162.316 111.484 165.122 113.454C165.99 114.089 166.825 115.091 167.493 116.394L168.495 118.364L168.662 157.44L168.829 196.55L169.931 199.121C172.603 205.334 178.014 209.542 184.359 210.41C189.102 211.078 194.713 210.243 197.652 208.406C199.255 207.404 198.988 207.07 196.583 207.07C187.766 207.07 180.953 201.359 179.984 193.11C179.784 191.64 179.684 176.043 179.75 156.138C179.884 116.427 179.55 120.067 183.357 116.193C185.295 114.256 185.829 113.922 188.267 113.121C192.008 111.885 195.949 111.885 200.324 113.054C202.027 113.521 203.497 113.889 203.597 113.889C203.664 113.889 203.73 113.588 203.73 113.254C203.73 112.92 203.029 111.851 202.161 110.883C198.454 106.741 192.776 103.535 186.163 101.798C182.623 100.897 181.554 100.763 176.511 100.663C172.57 100.596 170.132 100.696 168.495 101.03Z" fill="black"/>
<path d="M153.666 119.466C153.098 120.168 152.631 120.836 152.631 120.969C152.631 121.47 150.727 122.171 147.988 122.706C145.083 123.24 142.678 124.409 141.776 125.678C141.476 126.079 140.808 127.114 140.273 127.983C139.104 129.887 137.034 131.323 130.254 134.93C127.415 136.433 124.81 137.936 124.476 138.27C124.142 138.57 123.775 139.438 123.674 140.173C123.474 141.576 124.008 142.812 126.446 146.619C127.649 148.456 127.649 148.456 127.448 151.362C127.248 153.733 127.348 154.601 127.883 156.104C128.751 158.609 130.254 160.58 132.291 161.982C133.727 162.951 134.329 163.151 136.232 163.252C138.704 163.385 139.873 163.018 141.209 161.548C143.246 159.377 142.11 156.772 138.67 155.804C135.965 155.002 134.562 154.201 133.16 152.664C131.59 150.894 130.922 149.592 130.688 147.688C130.254 143.914 132.258 141.175 137.401 138.604C141.008 136.8 142.912 135.163 144.315 132.659C146.252 129.185 146.82 128.784 150.694 128.25C153.432 127.849 155.203 127.014 156.472 125.511C159.21 122.272 158.81 118.23 155.737 118.23C154.935 118.23 154.434 118.531 153.666 119.466Z" fill="black"/>
<path d="M192.876 118.665C187.733 120.401 184.493 123.975 183.892 128.617C183.591 131.156 183.959 131.356 187.365 130.521C192.776 129.219 198.621 129.953 203.831 132.592C209.275 135.364 212.18 138.437 215.286 144.649C215.921 145.918 216.656 146.953 216.923 146.953C217.758 146.953 218.192 144.715 217.925 141.476C217.524 136.065 216.322 132.191 213.917 128.417C211.245 124.242 208.072 121.57 203.63 119.667C201.226 118.631 200.491 118.464 197.552 118.364C195.347 118.264 193.744 118.397 192.876 118.665Z" fill="black"/>
<path d="M185.061 136.6C184.46 136.733 183.725 137.101 183.424 137.401C182.957 137.869 182.957 138.036 183.391 138.837C184.259 140.474 187.265 143.413 189.603 144.882C190.839 145.684 193.177 147.087 194.78 148.022C198.487 150.193 200.725 152.163 203.062 155.336C205.434 158.509 206.97 162.149 207.671 166.157C208.139 168.829 208.139 169.631 207.738 172.603C207.504 174.473 207.404 176.11 207.504 176.244C208.072 176.778 209.442 175.542 210.611 173.438C213.683 167.994 214.852 161.949 213.984 156.438C213.082 150.994 210.978 146.853 207.037 142.945C202.428 138.37 196.951 136.232 189.87 136.299C187.866 136.332 185.695 136.466 185.061 136.6Z" fill="black"/>
<path d="M184.025 154.134V158.977L185.094 159.878C189.77 163.92 191.373 166.057 192.609 169.965C193.377 172.303 193.41 172.87 193.277 177.346C193.177 181.12 192.976 182.623 192.442 184.126C191.306 187.198 189.67 190.037 187.799 192.074C186.831 193.11 186.029 194.212 186.029 194.513C186.029 196.116 191.674 193.711 195.548 190.471C200.958 185.929 203.797 179.116 203.296 172.002C203.029 168.328 201.493 163.519 199.689 160.747C197.151 156.872 192.843 153.199 187.833 150.627C183.858 148.59 184.025 148.423 184.025 154.134Z" fill="black"/>
<path d="M155.436 157.106C152.497 158.041 147.387 161.615 144.949 164.421C143.246 166.391 142.411 167.627 141.242 170.031C139.271 173.972 138.871 175.542 138.704 180.251C138.537 184.159 138.604 184.927 139.271 187.098C142.077 196.283 150.059 203.73 159.21 205.567C164.521 206.636 165.69 205.768 162.25 203.296C157.808 200.157 154.234 194.446 152.597 188.033C151.896 185.261 151.963 176.21 152.731 173.004C153.666 169.029 154.869 165.79 156.906 161.715C158.375 158.743 158.709 157.808 158.442 157.373C157.975 156.639 157.14 156.572 155.436 157.106Z" fill="black"/>
<path d="M88.8505 236.073C88.2705 237.673 88.5605 262.436 89.2129 263.2C89.7929 263.964 93.3087 264.073 93.8524 263.382C94.3961 262.655 94.7948 236.218 94.2874 235.6C93.9974 235.273 93.0913 235.091 91.5689 235.091C89.3579 235.091 89.2129 235.164 88.8505 236.073Z" fill="black"/>
<path d="M111.613 235.745C111.069 236.364 110.997 237.709 110.997 249.236V262.073L112.048 263.127C113.244 264.327 114.15 264.436 115.709 263.636L116.796 263.055V254.873C116.796 248.182 116.869 246.691 117.267 246.8C117.739 246.909 118.935 248.291 123.502 253.855C131.621 263.745 132.019 264.182 133.868 264.182C134.375 264.182 135.282 263.745 135.825 263.236L136.84 262.291L136.623 249.2C136.441 240.255 136.26 235.927 135.97 235.6C135.463 234.982 131.983 234.909 131.367 235.527C131.041 235.855 130.932 238.327 130.932 244.436C130.932 249.091 130.787 252.909 130.606 252.909C130.425 252.909 130.026 252.473 129.663 251.964C129.337 251.455 128.794 250.764 128.467 250.436C128.141 250.109 125.966 247.527 123.683 244.727C115.165 234.364 116.071 235.273 114.041 235.164C112.628 235.091 112.084 235.2 111.613 235.745Z" fill="black"/>
<path d="M151.52 235.491C151.012 235.782 150.867 236.327 150.867 238C150.867 239.309 151.049 240.255 151.339 240.436C151.556 240.582 153.586 240.8 155.761 240.909L159.748 241.091L159.929 251.818C160.038 257.709 160.219 262.727 160.4 262.982C160.799 263.6 163.553 263.927 164.75 263.491L165.728 263.091V252.218C165.728 242.655 165.801 241.309 166.308 241.127C166.634 241.018 168.41 240.909 170.295 240.909C174.427 240.909 175.152 240.436 175.152 237.855C175.152 235.018 175.478 235.091 163.082 235.091C156.304 235.091 151.882 235.273 151.52 235.491Z" fill="black"/>
<path d="M195.486 237.345C194.326 239.891 193.384 242 192.224 244.727C191.789 245.709 191.282 246.873 191.1 247.273C190.919 247.673 189.94 249.964 188.889 252.364C187.838 254.764 186.461 257.927 185.772 259.418C184.105 263.055 184.177 263.236 187.331 263.382L189.904 263.491L191.1 261.091C191.753 259.745 192.55 258.436 192.804 258.145C193.203 257.745 194.616 257.636 199.219 257.636H205.091L206.287 260.145C206.94 261.564 207.701 262.873 207.991 263.127C208.245 263.345 209.513 263.636 210.782 263.709C214.443 264 214.479 263.745 211.579 257.745C210.238 254.982 208.643 251.673 208.063 250.364C207.447 249.055 206.65 247.345 206.287 246.545C205.925 245.745 204.656 242.873 203.496 240.182L201.322 235.273L198.929 235.164L196.537 235.055L195.486 237.345ZM199.437 244.582C199.437 244.8 199.654 245.491 199.944 246.109C201.938 250.655 202.337 251.6 202.337 252.036C202.337 252.436 201.539 252.545 198.712 252.545C196.066 252.545 195.087 252.436 195.087 252.073C195.087 251.455 198.06 244.764 198.531 244.473C199.074 244.073 199.437 244.109 199.437 244.582Z" fill="black"/>
<path d="M230.101 235.855C229.594 236.618 229.521 238.255 229.521 249.455C229.557 264.073 229.449 263.636 232.421 263.636C233.399 263.636 234.414 263.418 234.668 263.164C234.994 262.873 235.175 261.382 235.248 258.909L235.393 255.091H238.075C240.721 255.091 240.757 255.091 241.337 256.255C242.171 257.891 245.505 262.836 245.977 263.164C246.702 263.673 251.994 263.491 251.994 262.982C251.994 262.764 250.761 260.655 249.275 258.364C247.789 256.073 246.557 254.109 246.557 253.964C246.557 253.855 247.282 253.273 248.151 252.655C249.058 252 250.181 250.727 250.87 249.527C251.812 247.855 251.994 247.2 251.994 245.055C251.994 242.073 251.16 240.073 249.021 238.182C246.23 235.636 245.034 235.309 237.459 235.164C230.717 235.018 230.717 235.018 230.101 235.855ZM243.983 241.345C246.303 243.164 247.137 245.855 245.977 247.673C244.926 249.273 243.657 249.636 239.489 249.636H235.647L235.755 245.164L235.864 240.727L237.133 240.509C239.271 240.109 243.005 240.582 243.983 241.345Z" fill="black"/>
<path d="M269.609 235.891C269.102 236.582 269.029 238.509 269.029 249.455C269.029 259.236 269.138 262.364 269.5 262.873C269.899 263.455 270.805 263.491 279.178 263.455C287.406 263.455 288.457 263.382 288.892 262.836C289.472 262.036 289.472 259.273 288.856 258.764C288.529 258.545 285.847 258.327 281.679 258.291L275.01 258.182V255.273V252.364H280.12C283.854 252.327 285.412 252.218 285.847 251.855C286.572 251.236 286.645 248.073 285.956 247.527C285.666 247.273 283.346 247.055 280.229 247.018L275.01 246.909L274.901 243.709L274.792 240.545H281.86C289.762 240.545 289.327 240.727 289.327 237.636C289.327 236.218 289.182 235.745 288.638 235.455C288.203 235.236 284.47 235.091 279.033 235.091C270.261 235.091 270.153 235.091 269.609 235.891Z" fill="black"/>
</svg>
